<?xml version="1.0" encoding="utf-8" standalone="no"?>
<!DOCTYPE svg PUBLIC "-//W3C//DTD SVG 1.1//EN"
  "http://www.w3.org/Graphics/SVG/1.1/DTD/svg11.dtd">
<svg xmlns:xlink="http://www.w3.org/1999/xlink" width="720pt" height="432pt" viewBox="0 0 720 432" xmlns="http://www.w3.org/2000/svg" version="1.1">
 <metadata>
  <rdf:RDF xmlns:dc="http://purl.org/dc/elements/1.1/" xmlns:cc="http://creativecommons.org/ns#" xmlns:rdf="http://www.w3.org/1999/02/22-rdf-syntax-ns#">
   <cc:Work>
    <dc:type rdf:resource="http://purl.org/dc/dcmitype/StillImage"/>
    <dc:date>2025-05-11T13:38:30.719399</dc:date>
    <dc:format>image/svg+xml</dc:format>
    <dc:creator>
     <cc:Agent>
      <dc:title>Matplotlib v3.9.4, https://matplotlib.org/</dc:title>
     </cc:Agent>
    </dc:creator>
   </cc:Work>
  </rdf:RDF>
 </metadata>
 <defs>
  <style type="text/css">*{stroke-linejoin: round; stroke-linecap: butt}</style>
 </defs>
 <g id="figure_1">
  <g id="patch_1">
   <path d="M 0 432 
L 720 432 
L 720 0 
L 0 0 
z
" style="fill: #ffffff"/>
  </g>
  <g id="axes_1">
   <g id="patch_2">
    <path d="M 51.05 390.04 
L 709.2 390.04 
L 709.2 26.16 
L 51.05 26.16 
z
" style="fill: #ffffff"/>
   </g>
   <g id="patch_3">
    <path d="M 80.965909 390.04 
L 92.932273 390.04 
L 92.932273 376.79596 
L 80.965909 376.79596 
z
" clip-path="url(#pfe2baec6bb)" style="fill: #ff8c00"/>
   </g>
   <g id="patch_4">
    <path d="M 92.932273 390.04 
L 104.898636 390.04 
L 104.898636 388.93633 
L 92.932273 388.93633 
z
" clip-path="url(#pfe2baec6bb)" style="fill: #ff8c00"/>
   </g>
   <g id="patch_5">
    <path d="M 104.898636 390.04 
L 116.865 390.04 
L 116.865 376.79596 
L 104.898636 376.79596 
z
" clip-path="url(#pfe2baec6bb)" style="fill: #ff8c00"/>
   </g>
   <g id="patch_6">
    <path d="M 116.865 390.04 
L 128.831364 390.04 
L 128.831364 364.65559 
L 116.865 364.65559 
z
" clip-path="url(#pfe2baec6bb)" style="fill: #ff8c00"/>
   </g>
   <g id="patch_7">
    <path d="M 128.831364 390.04 
L 140.797727 390.04 
L 140.797727 359.13724 
L 128.831364 359.13724 
z
" clip-path="url(#pfe2baec6bb)" style="fill: #ff8c00"/>
   </g>
   <g id="patch_8">
    <path d="M 140.797727 390.04 
L 152.764091 390.04 
L 152.764091 324.92347 
L 140.797727 324.92347 
z
" clip-path="url(#pfe2baec6bb)" style="fill: #ff8c00"/>
   </g>
   <g id="patch_9">
    <path d="M 152.764091 390.04 
L 164.730455 390.04 
L 164.730455 309.47209 
L 152.764091 309.47209 
z
" clip-path="url(#pfe2baec6bb)" style="fill: #ff8c00"/>
   </g>
   <g id="patch_10">
    <path d="M 164.730455 390.04 
L 176.696818 390.04 
L 176.696818 243.25189 
L 164.730455 243.25189 
z
" clip-path="url(#pfe2baec6bb)" style="fill: #ff8c00"/>
   </g>
   <g id="patch_11">
    <path d="M 176.696818 390.04 
L 188.663182 390.04 
L 188.663182 183.653709 
L 176.696818 183.653709 
z
" clip-path="url(#pfe2baec6bb)" style="fill: #ff8c00"/>
   </g>
   <g id="patch_12">
    <path d="M 188.663182 390.04 
L 200.629545 390.04 
L 200.629545 85.427079 
L 188.663182 85.427079 
z
" clip-path="url(#pfe2baec6bb)" style="fill: #ff8c00"/>
   </g>
   <g id="patch_13">
    <path d="M 200.629545 390.04 
L 212.595909 390.04 
L 212.595909 43.487619 
L 200.629545 43.487619 
z
" clip-path="url(#pfe2baec6bb)" style="fill: #ff8c00"/>
   </g>
   <g id="patch_14">
    <path d="M 212.595909 390.04 
L 224.562273 390.04 
L 224.562273 77.701389 
L 212.595909 77.701389 
z
" clip-path="url(#pfe2baec6bb)" style="fill: #ff8c00"/>
   </g>
   <g id="patch_15">
    <path d="M 224.562273 390.04 
L 236.528636 390.04 
L 236.528636 113.018829 
L 224.562273 113.018829 
z
" clip-path="url(#pfe2baec6bb)" style="fill: #ff8c00"/>
   </g>
   <g id="patch_16">
    <path d="M 236.528636 390.04 
L 248.495 390.04 
L 248.495 201.312429 
L 236.528636 201.312429 
z
" clip-path="url(#pfe2baec6bb)" style="fill: #ff8c00"/>
   </g>
   <g id="patch_17">
    <path d="M 248.495 390.04 
L 260.461364 390.04 
L 260.461364 245.45923 
L 248.495 245.45923 
z
" clip-path="url(#pfe2baec6bb)" style="fill: #ff8c00"/>
   </g>
   <g id="patch_18">
    <path d="M 260.461364 390.04 
L 272.427727 390.04 
L 272.427727 236.62987 
L 260.461364 236.62987 
z
" clip-path="url(#pfe2baec6bb)" style="fill: #ff8c00"/>
   </g>
   <g id="patch_19">
    <path d="M 272.427727 390.04 
L 284.394091 390.04 
L 284.394091 279.673 
L 272.427727 279.673 
z
" clip-path="url(#pfe2baec6bb)" style="fill: #ff8c00"/>
   </g>
   <g id="patch_20">
    <path d="M 284.394091 390.04 
L 296.360455 390.04 
L 296.360455 289.60603 
L 284.394091 289.60603 
z
" clip-path="url(#pfe2baec6bb)" style="fill: #ff8c00"/>
   </g>
   <g id="patch_21">
    <path d="M 296.360455 390.04 
L 308.326818 390.04 
L 308.326818 307.26475 
L 296.360455 307.26475 
z
" clip-path="url(#pfe2baec6bb)" style="fill: #ff8c00"/>
   </g>
   <g id="patch_22">
    <path d="M 308.326818 390.04 
L 320.293182 390.04 
L 320.293182 332.64916 
L 308.326818 332.64916 
z
" clip-path="url(#pfe2baec6bb)" style="fill: #ff8c00"/>
   </g>
   <g id="patch_23">
    <path d="M 320.293182 390.04 
L 332.259545 390.04 
L 332.259545 334.8565 
L 320.293182 334.8565 
z
" clip-path="url(#pfe2baec6bb)" style="fill: #ff8c00"/>
   </g>
   <g id="patch_24">
    <path d="M 332.259545 390.04 
L 344.225909 390.04 
L 344.225909 339.27118 
L 332.259545 339.27118 
z
" clip-path="url(#pfe2baec6bb)" style="fill: #ff8c00"/>
   </g>
   <g id="patch_25">
    <path d="M 344.225909 390.04 
L 356.192273 390.04 
L 356.192273 356.9299 
L 344.225909 356.9299 
z
" clip-path="url(#pfe2baec6bb)" style="fill: #ff8c00"/>
   </g>
   <g id="patch_26">
    <path d="M 356.192273 390.04 
L 368.158636 390.04 
L 368.158636 355.82623 
L 356.192273 355.82623 
z
" clip-path="url(#pfe2baec6bb)" style="fill: #ff8c00"/>
   </g>
   <g id="patch_27">
    <path d="M 368.158636 390.04 
L 380.125 390.04 
L 380.125 362.44825 
L 368.158636 362.44825 
z
" clip-path="url(#pfe2baec6bb)" style="fill: #ff8c00"/>
   </g>
   <g id="patch_28">
    <path d="M 380.125 390.04 
L 392.091364 390.04 
L 392.091364 363.55192 
L 380.125 363.55192 
z
" clip-path="url(#pfe2baec6bb)" style="fill: #ff8c00"/>
   </g>
   <g id="patch_29">
    <path d="M 392.091364 390.04 
L 404.057727 390.04 
L 404.057727 376.79596 
L 392.091364 376.79596 
z
" clip-path="url(#pfe2baec6bb)" style="fill: #ff8c00"/>
   </g>
   <g id="patch_30">
    <path d="M 404.057727 390.04 
L 416.024091 390.04 
L 416.024091 375.69229 
L 404.057727 375.69229 
z
" clip-path="url(#pfe2baec6bb)" style="fill: #ff8c00"/>
   </g>
   <g id="patch_31">
    <path d="M 416.024091 390.04 
L 427.990455 390.04 
L 427.990455 385.62532 
L 416.024091 385.62532 
z
" clip-path="url(#pfe2baec6bb)" style="fill: #ff8c00"/>
   </g>
   <g id="patch_32">
    <path d="M 427.990455 390.04 
L 439.956818 390.04 
L 439.956818 379.0033 
L 427.990455 379.0033 
z
" clip-path="url(#pfe2baec6bb)" style="fill: #ff8c00"/>
   </g>
   <g id="patch_33">
    <path d="M 439.956818 390.04 
L 451.923182 390.04 
L 451.923182 382.31431 
L 439.956818 382.31431 
z
" clip-path="url(#pfe2baec6bb)" style="fill: #ff8c00"/>
   </g>
   <g id="patch_34">
    <path d="M 451.923182 390.04 
L 463.889545 390.04 
L 463.889545 384.52165 
L 451.923182 384.52165 
z
" clip-path="url(#pfe2baec6bb)" style="fill: #ff8c00"/>
   </g>
   <g id="patch_35">
    <path d="M 463.889545 390.04 
L 475.855909 390.04 
L 475.855909 383.41798 
L 463.889545 383.41798 
z
" clip-path="url(#pfe2baec6bb)" style="fill: #ff8c00"/>
   </g>
   <g id="patch_36">
    <path d="M 475.855909 390.04 
L 487.822273 390.04 
L 487.822273 382.31431 
L 475.855909 382.31431 
z
" clip-path="url(#pfe2baec6bb)" style="fill: #ff8c00"/>
   </g>
   <g id="patch_37">
    <path d="M 487.822273 390.04 
L 499.788636 390.04 
L 499.788636 386.72899 
L 487.822273 386.72899 
z
" clip-path="url(#pfe2baec6bb)" style="fill: #ff8c00"/>
   </g>
   <g id="patch_38">
    <path d="M 499.788636 390.04 
L 511.755 390.04 
L 511.755 387.83266 
L 499.788636 387.83266 
z
" clip-path="url(#pfe2baec6bb)" style="fill: #ff8c00"/>
   </g>
   <g id="patch_39">
    <path d="M 511.755 390.04 
L 523.721364 390.04 
L 523.721364 387.83266 
L 511.755 387.83266 
z
" clip-path="url(#pfe2baec6bb)" style="fill: #ff8c00"/>
   </g>
   <g id="patch_40">
    <path d="M 523.721364 390.04 
L 535.687727 390.04 
L 535.687727 386.72899 
L 523.721364 386.72899 
z
" clip-path="url(#pfe2baec6bb)" style="fill: #ff8c00"/>
   </g>
   <g id="patch_41">
    <path d="M 535.687727 390.04 
L 547.654091 390.04 
L 547.654091 387.83266 
L 535.687727 387.83266 
z
" clip-path="url(#pfe2baec6bb)" style="fill: #ff8c00"/>
   </g>
   <g id="patch_42">
    <path d="M 547.654091 390.04 
L 559.620455 390.04 
L 559.620455 390.04 
L 547.654091 390.04 
z
" clip-path="url(#pfe2baec6bb)" style="fill: #ff8c00"/>
   </g>
   <g id="patch_43">
    <path d="M 559.620455 390.04 
L 571.586818 390.04 
L 571.586818 384.52165 
L 559.620455 384.52165 
z
" clip-path="url(#pfe2baec6bb)" style="fill: #ff8c00"/>
   </g>
   <g id="patch_44">
    <path d="M 571.586818 390.04 
L 583.553182 390.04 
L 583.553182 388.93633 
L 571.586818 388.93633 
z
" clip-path="url(#pfe2baec6bb)" style="fill: #ff8c00"/>
   </g>
   <g id="patch_45">
    <path d="M 583.553182 390.04 
L 595.519545 390.04 
L 595.519545 387.83266 
L 583.553182 387.83266 
z
" clip-path="url(#pfe2baec6bb)" style="fill: #ff8c00"/>
   </g>
   <g id="patch_46">
    <path d="M 595.519545 390.04 
L 607.485909 390.04 
L 607.485909 388.93633 
L 595.519545 388.93633 
z
" clip-path="url(#pfe2baec6bb)" style="fill: #ff8c00"/>
   </g>
   <g id="patch_47">
    <path d="M 607.485909 390.04 
L 619.452273 390.04 
L 619.452273 387.83266 
L 607.485909 387.83266 
z
" clip-path="url(#pfe2baec6bb)" style="fill: #ff8c00"/>
   </g>
   <g id="patch_48">
    <path d="M 619.452273 390.04 
L 631.418636 390.04 
L 631.418636 390.04 
L 619.452273 390.04 
z
" clip-path="url(#pfe2baec6bb)" style="fill: #ff8c00"/>
   </g>
   <g id="patch_49">
    <path d="M 631.418636 390.04 
L 643.385 390.04 
L 643.385 387.83266 
L 631.418636 387.83266 
z
" clip-path="url(#pfe2baec6bb)" style="fill: #ff8c00"/>
   </g>
   <g id="patch_50">
    <path d="M 643.385 390.04 
L 655.351364 390.04 
L 655.351364 390.04 
L 643.385 390.04 
z
" clip-path="url(#pfe2baec6bb)" style="fill: #ff8c00"/>
   </g>
   <g id="patch_51">
    <path d="M 655.351364 390.04 
L 667.317727 390.04 
L 667.317727 386.72899 
L 655.351364 386.72899 
z
" clip-path="url(#pfe2baec6bb)" style="fill: #ff8c00"/>
   </g>
   <g id="patch_52">
    <path d="M 667.317727 390.04 
L 679.284091 390.04 
L 679.284091 386.72899 
L 667.317727 386.72899 
z
" clip-path="url(#pfe2baec6bb)" style="fill: #ff8c00"/>
   </g>
   <g id="matplotlib.axis_1">
    <g id="xtick_1">
     <g id="line2d_1">
      <path d="M 80.965909 390.04 
L 80.965909 26.16 
" clip-path="url(#pfe2baec6bb)" style="fill: none; stroke: #b0b0b0; stroke-width: 0.8; stroke-linecap: square"/>
     </g>
     <g id="line2d_2">
      <defs>
       <path id="md32143a791" d="M 0 0 
L 0 3.5 
" style="stroke: #000000; stroke-width: 0.8"/>
      </defs>
      <g>
       <use xlink:href="#md32143a791" x="80.965909" y="390.04" style="stroke: #000000; stroke-width: 0.8"/>
      </g>
     </g>
     <g id="text_1">
      <!-- 0.000 -->
      <g transform="translate(66.651847 404.638438) scale(0.1 -0.1)">
       <defs>
        <path id="DejaVuSans-30" d="M 2034 4250 
Q 1547 4250 1301 3770 
Q 1056 3291 1056 2328 
Q 1056 1369 1301 889 
Q 1547 409 2034 409 
Q 2525 409 2770 889 
Q 3016 1369 3016 2328 
Q 3016 3291 2770 3770 
Q 2525 4250 2034 4250 
z
M 2034 4750 
Q 2819 4750 3233 4129 
Q 3647 3509 3647 2328 
Q 3647 1150 3233 529 
Q 2819 -91 2034 -91 
Q 1250 -91 836 529 
Q 422 1150 422 2328 
Q 422 3509 836 4129 
Q 1250 4750 2034 4750 
z
" transform="scale(0.015625)"/>
        <path id="DejaVuSans-2e" d="M 684 794 
L 1344 794 
L 1344 0 
L 684 0 
L 684 794 
z
" transform="scale(0.015625)"/>
       </defs>
       <use xlink:href="#DejaVuSans-30"/>
       <use xlink:href="#DejaVuSans-2e" x="63.623047"/>
       <use xlink:href="#DejaVuSans-30" x="95.410156"/>
       <use xlink:href="#DejaVuSans-30" x="159.033203"/>
       <use xlink:href="#DejaVuSans-30" x="222.65625"/>
      </g>
     </g>
    </g>
    <g id="xtick_2">
     <g id="line2d_3">
      <path d="M 168.054444 390.04 
L 168.054444 26.16 
" clip-path="url(#pfe2baec6bb)" style="fill: none; stroke: #b0b0b0; stroke-width: 0.8; stroke-linecap: square"/>
     </g>
     <g id="line2d_4">
      <g>
       <use xlink:href="#md32143a791" x="168.054444" y="390.04" style="stroke: #000000; stroke-width: 0.8"/>
      </g>
     </g>
     <g id="text_2">
      <!-- 0.025 -->
      <g transform="translate(153.740382 404.638438) scale(0.1 -0.1)">
       <defs>
        <path id="DejaVuSans-32" d="M 1228 531 
L 3431 531 
L 3431 0 
L 469 0 
L 469 531 
Q 828 903 1448 1529 
Q 2069 2156 2228 2338 
Q 2531 2678 2651 2914 
Q 2772 3150 2772 3378 
Q 2772 3750 2511 3984 
Q 2250 4219 1831 4219 
Q 1534 4219 1204 4116 
Q 875 4013 500 3803 
L 500 4441 
Q 881 4594 1212 4672 
Q 1544 4750 1819 4750 
Q 2544 4750 2975 4387 
Q 3406 4025 3406 3419 
Q 3406 3131 3298 2873 
Q 3191 2616 2906 2266 
Q 2828 2175 2409 1742 
Q 1991 1309 1228 531 
z
" transform="scale(0.015625)"/>
        <path id="DejaVuSans-35" d="M 691 4666 
L 3169 4666 
L 3169 4134 
L 1269 4134 
L 1269 2991 
Q 1406 3038 1543 3061 
Q 1681 3084 1819 3084 
Q 2600 3084 3056 2656 
Q 3513 2228 3513 1497 
Q 3513 744 3044 326 
Q 2575 -91 1722 -91 
Q 1428 -91 1123 -41 
Q 819 9 494 109 
L 494 744 
Q 775 591 1075 516 
Q 1375 441 1709 441 
Q 2250 441 2565 725 
Q 2881 1009 2881 1497 
Q 2881 1984 2565 2268 
Q 2250 2553 1709 2553 
Q 1456 2553 1204 2497 
Q 953 2441 691 2322 
L 691 4666 
z
" transform="scale(0.015625)"/>
       </defs>
       <use xlink:href="#DejaVuSans-30"/>
       <use xlink:href="#DejaVuSans-2e" x="63.623047"/>
       <use xlink:href="#DejaVuSans-30" x="95.410156"/>
       <use xlink:href="#DejaVuSans-32" x="159.033203"/>
       <use xlink:href="#DejaVuSans-35" x="222.65625"/>
      </g>
     </g>
    </g>
    <g id="xtick_3">
     <g id="line2d_5">
      <path d="M 255.14298 390.04 
L 255.14298 26.16 
" clip-path="url(#pfe2baec6bb)" style="fill: none; stroke: #b0b0b0; stroke-width: 0.8; stroke-linecap: square"/>
     </g>
     <g id="line2d_6">
      <g>
       <use xlink:href="#md32143a791" x="255.14298" y="390.04" style="stroke: #000000; stroke-width: 0.8"/>
      </g>
     </g>
     <g id="text_3">
      <!-- 0.050 -->
      <g transform="translate(240.828917 404.638438) scale(0.1 -0.1)">
       <use xlink:href="#DejaVuSans-30"/>
       <use xlink:href="#DejaVuSans-2e" x="63.623047"/>
       <use xlink:href="#DejaVuSans-30" x="95.410156"/>
       <use xlink:href="#DejaVuSans-35" x="159.033203"/>
       <use xlink:href="#DejaVuSans-30" x="222.65625"/>
      </g>
     </g>
    </g>
    <g id="xtick_4">
     <g id="line2d_7">
      <path d="M 342.231515 390.04 
L 342.231515 26.16 
" clip-path="url(#pfe2baec6bb)" style="fill: none; stroke: #b0b0b0; stroke-width: 0.8; stroke-linecap: square"/>
     </g>
     <g id="line2d_8">
      <g>
       <use xlink:href="#md32143a791" x="342.231515" y="390.04" style="stroke: #000000; stroke-width: 0.8"/>
      </g>
     </g>
     <g id="text_4">
      <!-- 0.075 -->
      <g transform="translate(327.917453 404.638438) scale(0.1 -0.1)">
       <defs>
        <path id="DejaVuSans-37" d="M 525 4666 
L 3525 4666 
L 3525 4397 
L 1831 0 
L 1172 0 
L 2766 4134 
L 525 4134 
L 525 4666 
z
" transform="scale(0.015625)"/>
       </defs>
       <use xlink:href="#DejaVuSans-30"/>
       <use xlink:href="#DejaVuSans-2e" x="63.623047"/>
       <use xlink:href="#DejaVuSans-30" x="95.410156"/>
       <use xlink:href="#DejaVuSans-37" x="159.033203"/>
       <use xlink:href="#DejaVuSans-35" x="222.65625"/>
      </g>
     </g>
    </g>
    <g id="xtick_5">
     <g id="line2d_9">
      <path d="M 429.320051 390.04 
L 429.320051 26.16 
" clip-path="url(#pfe2baec6bb)" style="fill: none; stroke: #b0b0b0; stroke-width: 0.8; stroke-linecap: square"/>
     </g>
     <g id="line2d_10">
      <g>
       <use xlink:href="#md32143a791" x="429.320051" y="390.04" style="stroke: #000000; stroke-width: 0.8"/>
      </g>
     </g>
     <g id="text_5">
      <!-- 0.100 -->
      <g transform="translate(415.005988 404.638438) scale(0.1 -0.1)">
       <defs>
        <path id="DejaVuSans-31" d="M 794 531 
L 1825 531 
L 1825 4091 
L 703 3866 
L 703 4441 
L 1819 4666 
L 2450 4666 
L 2450 531 
L 3481 531 
L 3481 0 
L 794 0 
L 794 531 
z
" transform="scale(0.015625)"/>
       </defs>
       <use xlink:href="#DejaVuSans-30"/>
       <use xlink:href="#DejaVuSans-2e" x="63.623047"/>
       <use xlink:href="#DejaVuSans-31" x="95.410156"/>
       <use xlink:href="#DejaVuSans-30" x="159.033203"/>
       <use xlink:href="#DejaVuSans-30" x="222.65625"/>
      </g>
     </g>
    </g>
    <g id="xtick_6">
     <g id="line2d_11">
      <path d="M 516.408586 390.04 
L 516.408586 26.16 
" clip-path="url(#pfe2baec6bb)" style="fill: none; stroke: #b0b0b0; stroke-width: 0.8; stroke-linecap: square"/>
     </g>
     <g id="line2d_12">
      <g>
       <use xlink:href="#md32143a791" x="516.408586" y="390.04" style="stroke: #000000; stroke-width: 0.8"/>
      </g>
     </g>
     <g id="text_6">
      <!-- 0.125 -->
      <g transform="translate(502.094523 404.638438) scale(0.1 -0.1)">
       <use xlink:href="#DejaVuSans-30"/>
       <use xlink:href="#DejaVuSans-2e" x="63.623047"/>
       <use xlink:href="#DejaVuSans-31" x="95.410156"/>
       <use xlink:href="#DejaVuSans-32" x="159.033203"/>
       <use xlink:href="#DejaVuSans-35" x="222.65625"/>
      </g>
     </g>
    </g>
    <g id="xtick_7">
     <g id="line2d_13">
      <path d="M 603.497121 390.04 
L 603.497121 26.16 
" clip-path="url(#pfe2baec6bb)" style="fill: none; stroke: #b0b0b0; stroke-width: 0.8; stroke-linecap: square"/>
     </g>
     <g id="line2d_14">
      <g>
       <use xlink:href="#md32143a791" x="603.497121" y="390.04" style="stroke: #000000; stroke-width: 0.8"/>
      </g>
     </g>
     <g id="text_7">
      <!-- 0.150 -->
      <g transform="translate(589.183059 404.638438) scale(0.1 -0.1)">
       <use xlink:href="#DejaVuSans-30"/>
       <use xlink:href="#DejaVuSans-2e" x="63.623047"/>
       <use xlink:href="#DejaVuSans-31" x="95.410156"/>
       <use xlink:href="#DejaVuSans-35" x="159.033203"/>
       <use xlink:href="#DejaVuSans-30" x="222.65625"/>
      </g>
     </g>
    </g>
    <g id="xtick_8">
     <g id="line2d_15">
      <path d="M 690.585657 390.04 
L 690.585657 26.16 
" clip-path="url(#pfe2baec6bb)" style="fill: none; stroke: #b0b0b0; stroke-width: 0.8; stroke-linecap: square"/>
     </g>
     <g id="line2d_16">
      <g>
       <use xlink:href="#md32143a791" x="690.585657" y="390.04" style="stroke: #000000; stroke-width: 0.8"/>
      </g>
     </g>
     <g id="text_8">
      <!-- 0.175 -->
      <g transform="translate(676.271594 404.638438) scale(0.1 -0.1)">
       <use xlink:href="#DejaVuSans-30"/>
       <use xlink:href="#DejaVuSans-2e" x="63.623047"/>
       <use xlink:href="#DejaVuSans-31" x="95.410156"/>
       <use xlink:href="#DejaVuSans-37" x="159.033203"/>
       <use xlink:href="#DejaVuSans-35" x="222.65625"/>
      </g>
     </g>
    </g>
    <g id="text_9">
     <!-- Шумность -->
     <g transform="translate(353.110156 418.316562) scale(0.1 -0.1)">
      <defs>
       <path id="DejaVuSans-428" d="M 3738 531 
L 5584 531 
L 5584 4666 
L 6216 4666 
L 6216 0 
L 628 0 
L 628 4666 
L 1259 4666 
L 1259 531 
L 3106 531 
L 3106 4666 
L 3738 4666 
L 3738 531 
z
" transform="scale(0.015625)"/>
       <path id="DejaVuSans-443" d="M 2059 -325 
Q 1816 -950 1584 -1140 
Q 1353 -1331 966 -1331 
L 506 -1331 
L 506 -850 
L 844 -850 
Q 1081 -850 1212 -737 
Q 1344 -625 1503 -206 
L 1606 56 
L 191 3500 
L 800 3500 
L 1894 763 
L 2988 3500 
L 3597 3500 
L 2059 -325 
z
" transform="scale(0.015625)"/>
       <path id="DejaVuSans-43c" d="M 581 3500 
L 1422 3500 
L 2416 1156 
L 3413 3500 
L 4247 3500 
L 4247 0 
L 3669 0 
L 3669 2950 
L 2703 672 
L 2128 672 
L 1159 2950 
L 1159 0 
L 581 0 
L 581 3500 
z
" transform="scale(0.015625)"/>
       <path id="DejaVuSans-43d" d="M 581 3500 
L 1159 3500 
L 1159 2072 
L 3025 2072 
L 3025 3500 
L 3603 3500 
L 3603 0 
L 3025 0 
L 3025 1613 
L 1159 1613 
L 1159 0 
L 581 0 
L 581 3500 
z
" transform="scale(0.015625)"/>
       <path id="DejaVuSans-43e" d="M 1959 3097 
Q 1497 3097 1228 2736 
Q 959 2375 959 1747 
Q 959 1119 1226 758 
Q 1494 397 1959 397 
Q 2419 397 2687 759 
Q 2956 1122 2956 1747 
Q 2956 2369 2687 2733 
Q 2419 3097 1959 3097 
z
M 1959 3584 
Q 2709 3584 3137 3096 
Q 3566 2609 3566 1747 
Q 3566 888 3137 398 
Q 2709 -91 1959 -91 
Q 1206 -91 779 398 
Q 353 888 353 1747 
Q 353 2609 779 3096 
Q 1206 3584 1959 3584 
z
" transform="scale(0.015625)"/>
       <path id="DejaVuSans-441" d="M 3122 3366 
L 3122 2828 
Q 2878 2963 2633 3030 
Q 2388 3097 2138 3097 
Q 1578 3097 1268 2742 
Q 959 2388 959 1747 
Q 959 1106 1268 751 
Q 1578 397 2138 397 
Q 2388 397 2633 464 
Q 2878 531 3122 666 
L 3122 134 
Q 2881 22 2623 -34 
Q 2366 -91 2075 -91 
Q 1284 -91 818 406 
Q 353 903 353 1747 
Q 353 2603 823 3093 
Q 1294 3584 2113 3584 
Q 2378 3584 2631 3529 
Q 2884 3475 3122 3366 
z
" transform="scale(0.015625)"/>
       <path id="DejaVuSans-442" d="M 188 3500 
L 3541 3500 
L 3541 3041 
L 2147 3041 
L 2147 0 
L 1581 0 
L 1581 3041 
L 188 3041 
L 188 3500 
z
" transform="scale(0.015625)"/>
       <path id="DejaVuSans-44c" d="M 2781 1038 
Q 2781 1319 2576 1466 
Q 2372 1613 1978 1613 
L 1159 1613 
L 1159 459 
L 1978 459 
Q 2372 459 2576 607 
Q 2781 756 2781 1038 
z
M 581 3500 
L 1159 3500 
L 1159 2072 
L 2003 2072 
Q 2672 2072 3033 1817 
Q 3394 1563 3394 1038 
Q 3394 513 3033 256 
Q 2672 0 2003 0 
L 581 0 
L 581 3500 
z
" transform="scale(0.015625)"/>
      </defs>
      <use xlink:href="#DejaVuSans-428"/>
      <use xlink:href="#DejaVuSans-443" x="106.933594"/>
      <use xlink:href="#DejaVuSans-43c" x="166.113281"/>
      <use xlink:href="#DejaVuSans-43d" x="241.552734"/>
      <use xlink:href="#DejaVuSans-43e" x="306.933594"/>
      <use xlink:href="#DejaVuSans-441" x="368.115234"/>
      <use xlink:href="#DejaVuSans-442" x="423.095703"/>
      <use xlink:href="#DejaVuSans-44c" x="481.347656"/>
     </g>
    </g>
   </g>
   <g id="matplotlib.axis_2">
    <g id="ytick_1">
     <g id="line2d_17">
      <path d="M 51.05 390.04 
L 709.2 390.04 
" clip-path="url(#pfe2baec6bb)" style="fill: none; stroke: #b0b0b0; stroke-width: 0.8; stroke-linecap: square"/>
     </g>
     <g id="line2d_18">
      <defs>
       <path id="m6419b80eb3" d="M 0 0 
L -3.5 0 
" style="stroke: #000000; stroke-width: 0.8"/>
      </defs>
      <g>
       <use xlink:href="#m6419b80eb3" x="51.05" y="390.04" style="stroke: #000000; stroke-width: 0.8"/>
      </g>
     </g>
     <g id="text_10">
      <!-- 0 -->
      <g transform="translate(37.6875 393.839219) scale(0.1 -0.1)">
       <use xlink:href="#DejaVuSans-30"/>
      </g>
     </g>
    </g>
    <g id="ytick_2">
     <g id="line2d_19">
      <path d="M 51.05 334.8565 
L 709.2 334.8565 
" clip-path="url(#pfe2baec6bb)" style="fill: none; stroke: #b0b0b0; stroke-width: 0.8; stroke-linecap: square"/>
     </g>
     <g id="line2d_20">
      <g>
       <use xlink:href="#m6419b80eb3" x="51.05" y="334.8565" style="stroke: #000000; stroke-width: 0.8"/>
      </g>
     </g>
     <g id="text_11">
      <!-- 50 -->
      <g transform="translate(31.325 338.655719) scale(0.1 -0.1)">
       <use xlink:href="#DejaVuSans-35"/>
       <use xlink:href="#DejaVuSans-30" x="63.623047"/>
      </g>
     </g>
    </g>
    <g id="ytick_3">
     <g id="line2d_21">
      <path d="M 51.05 279.673 
L 709.2 279.673 
" clip-path="url(#pfe2baec6bb)" style="fill: none; stroke: #b0b0b0; stroke-width: 0.8; stroke-linecap: square"/>
     </g>
     <g id="line2d_22">
      <g>
       <use xlink:href="#m6419b80eb3" x="51.05" y="279.673" style="stroke: #000000; stroke-width: 0.8"/>
      </g>
     </g>
     <g id="text_12">
      <!-- 100 -->
      <g transform="translate(24.9625 283.472218) scale(0.1 -0.1)">
       <use xlink:href="#DejaVuSans-31"/>
       <use xlink:href="#DejaVuSans-30" x="63.623047"/>
       <use xlink:href="#DejaVuSans-30" x="127.246094"/>
      </g>
     </g>
    </g>
    <g id="ytick_4">
     <g id="line2d_23">
      <path d="M 51.05 224.4895 
L 709.2 224.4895 
" clip-path="url(#pfe2baec6bb)" style="fill: none; stroke: #b0b0b0; stroke-width: 0.8; stroke-linecap: square"/>
     </g>
     <g id="line2d_24">
      <g>
       <use xlink:href="#m6419b80eb3" x="51.05" y="224.4895" style="stroke: #000000; stroke-width: 0.8"/>
      </g>
     </g>
     <g id="text_13">
      <!-- 150 -->
      <g transform="translate(24.9625 228.288718) scale(0.1 -0.1)">
       <use xlink:href="#DejaVuSans-31"/>
       <use xlink:href="#DejaVuSans-35" x="63.623047"/>
       <use xlink:href="#DejaVuSans-30" x="127.246094"/>
      </g>
     </g>
    </g>
    <g id="ytick_5">
     <g id="line2d_25">
      <path d="M 51.05 169.305999 
L 709.2 169.305999 
" clip-path="url(#pfe2baec6bb)" style="fill: none; stroke: #b0b0b0; stroke-width: 0.8; stroke-linecap: square"/>
     </g>
     <g id="line2d_26">
      <g>
       <use xlink:href="#m6419b80eb3" x="51.05" y="169.305999" style="stroke: #000000; stroke-width: 0.8"/>
      </g>
     </g>
     <g id="text_14">
      <!-- 200 -->
      <g transform="translate(24.9625 173.105218) scale(0.1 -0.1)">
       <use xlink:href="#DejaVuSans-32"/>
       <use xlink:href="#DejaVuSans-30" x="63.623047"/>
       <use xlink:href="#DejaVuSans-30" x="127.246094"/>
      </g>
     </g>
    </g>
    <g id="ytick_6">
     <g id="line2d_27">
      <path d="M 51.05 114.122499 
L 709.2 114.122499 
" clip-path="url(#pfe2baec6bb)" style="fill: none; stroke: #b0b0b0; stroke-width: 0.8; stroke-linecap: square"/>
     </g>
     <g id="line2d_28">
      <g>
       <use xlink:href="#m6419b80eb3" x="51.05" y="114.122499" style="stroke: #000000; stroke-width: 0.8"/>
      </g>
     </g>
     <g id="text_15">
      <!-- 250 -->
      <g transform="translate(24.9625 117.921718) scale(0.1 -0.1)">
       <use xlink:href="#DejaVuSans-32"/>
       <use xlink:href="#DejaVuSans-35" x="63.623047"/>
       <use xlink:href="#DejaVuSans-30" x="127.246094"/>
      </g>
     </g>
    </g>
    <g id="ytick_7">
     <g id="line2d_29">
      <path d="M 51.05 58.938999 
L 709.2 58.938999 
" clip-path="url(#pfe2baec6bb)" style="fill: none; stroke: #b0b0b0; stroke-width: 0.8; stroke-linecap: square"/>
     </g>
     <g id="line2d_30">
      <g>
       <use xlink:href="#m6419b80eb3" x="51.05" y="58.938999" style="stroke: #000000; stroke-width: 0.8"/>
      </g>
     </g>
     <g id="text_16">
      <!-- 300 -->
      <g transform="translate(24.9625 62.738218) scale(0.1 -0.1)">
       <defs>
        <path id="DejaVuSans-33" d="M 2597 2516 
Q 3050 2419 3304 2112 
Q 3559 1806 3559 1356 
Q 3559 666 3084 287 
Q 2609 -91 1734 -91 
Q 1441 -91 1130 -33 
Q 819 25 488 141 
L 488 750 
Q 750 597 1062 519 
Q 1375 441 1716 441 
Q 2309 441 2620 675 
Q 2931 909 2931 1356 
Q 2931 1769 2642 2001 
Q 2353 2234 1838 2234 
L 1294 2234 
L 1294 2753 
L 1863 2753 
Q 2328 2753 2575 2939 
Q 2822 3125 2822 3475 
Q 2822 3834 2567 4026 
Q 2313 4219 1838 4219 
Q 1578 4219 1281 4162 
Q 984 4106 628 3988 
L 628 4550 
Q 988 4650 1302 4700 
Q 1616 4750 1894 4750 
Q 2613 4750 3031 4423 
Q 3450 4097 3450 3541 
Q 3450 3153 3228 2886 
Q 3006 2619 2597 2516 
z
" transform="scale(0.015625)"/>
       </defs>
       <use xlink:href="#DejaVuSans-33"/>
       <use xlink:href="#DejaVuSans-30" x="63.623047"/>
       <use xlink:href="#DejaVuSans-30" x="127.246094"/>
      </g>
     </g>
    </g>
    <g id="text_17">
     <!-- Число документов -->
     <g transform="translate(18.882812 256.903125) rotate(-90) scale(0.1 -0.1)">
      <defs>
       <path id="DejaVuSans-427" d="M 3125 0 
L 3125 1913 
L 1822 1913 
Q 1241 1913 894 2277 
Q 547 2641 547 3384 
L 547 4666 
L 1175 4666 
L 1175 3434 
Q 1175 2938 1369 2691 
Q 1563 2444 1950 2444 
L 3125 2444 
L 3125 4666 
L 3759 4666 
L 3759 0 
L 3125 0 
z
" transform="scale(0.015625)"/>
       <path id="DejaVuSans-438" d="M 3578 3500 
L 3578 0 
L 3006 0 
L 3006 2809 
L 1319 0 
L 581 0 
L 581 3500 
L 1153 3500 
L 1153 697 
L 2838 3500 
L 3578 3500 
z
" transform="scale(0.015625)"/>
       <path id="DejaVuSans-43b" d="M 238 0 
L 238 478 
Q 806 566 981 959 
Q 1194 1513 1194 2928 
L 1194 3500 
L 3559 3500 
L 3559 0 
L 2984 0 
L 2984 3041 
L 1769 3041 
L 1769 2694 
Q 1769 1344 1494 738 
Q 1200 91 238 0 
z
" transform="scale(0.015625)"/>
       <path id="DejaVuSans-20" transform="scale(0.015625)"/>
       <path id="DejaVuSans-434" d="M 1384 459 
L 3053 459 
L 3053 3041 
L 1844 3041 
L 1844 2603 
Q 1844 1316 1475 628 
L 1384 459 
z
M 550 459 
Q 834 584 959 850 
Q 1266 1509 1266 2838 
L 1266 3500 
L 3631 3500 
L 3631 459 
L 4091 459 
L 4091 -884 
L 3631 -884 
L 3631 0 
L 794 0 
L 794 -884 
L 334 -884 
L 334 459 
L 550 459 
z
" transform="scale(0.015625)"/>
       <path id="DejaVuSans-43a" d="M 581 3500 
L 1153 3500 
L 1153 1856 
L 2775 3500 
L 3481 3500 
L 2144 2147 
L 3653 0 
L 3009 0 
L 1769 1766 
L 1153 1141 
L 1153 0 
L 581 0 
L 581 3500 
z
" transform="scale(0.015625)"/>
       <path id="DejaVuSans-435" d="M 3597 1894 
L 3597 1613 
L 953 1613 
Q 991 1019 1311 708 
Q 1631 397 2203 397 
Q 2534 397 2845 478 
Q 3156 559 3463 722 
L 3463 178 
Q 3153 47 2828 -22 
Q 2503 -91 2169 -91 
Q 1331 -91 842 396 
Q 353 884 353 1716 
Q 353 2575 817 3079 
Q 1281 3584 2069 3584 
Q 2775 3584 3186 3129 
Q 3597 2675 3597 1894 
z
M 3022 2063 
Q 3016 2534 2758 2815 
Q 2500 3097 2075 3097 
Q 1594 3097 1305 2825 
Q 1016 2553 972 2059 
L 3022 2063 
z
" transform="scale(0.015625)"/>
       <path id="DejaVuSans-432" d="M 1156 1613 
L 1156 459 
L 1975 459 
Q 2369 459 2575 607 
Q 2781 756 2781 1038 
Q 2781 1319 2575 1466 
Q 2369 1613 1975 1613 
L 1156 1613 
z
M 1156 3041 
L 1156 2072 
L 1913 2072 
Q 2238 2072 2444 2201 
Q 2650 2331 2650 2563 
Q 2650 2794 2444 2917 
Q 2238 3041 1913 3041 
L 1156 3041 
z
M 581 3500 
L 1950 3500 
Q 2566 3500 2897 3275 
Q 3228 3050 3228 2634 
Q 3228 2313 3059 2123 
Q 2891 1934 2559 1888 
Q 2956 1813 3175 1575 
Q 3394 1338 3394 981 
Q 3394 513 3033 256 
Q 2672 0 2003 0 
L 581 0 
L 581 3500 
z
" transform="scale(0.015625)"/>
      </defs>
      <use xlink:href="#DejaVuSans-427"/>
      <use xlink:href="#DejaVuSans-438" x="68.554688"/>
      <use xlink:href="#DejaVuSans-441" x="133.544922"/>
      <use xlink:href="#DejaVuSans-43b" x="188.525391"/>
      <use xlink:href="#DejaVuSans-43e" x="252.441406"/>
      <use xlink:href="#DejaVuSans-20" x="313.623047"/>
      <use xlink:href="#DejaVuSans-434" x="345.410156"/>
      <use xlink:href="#DejaVuSans-43e" x="414.550781"/>
      <use xlink:href="#DejaVuSans-43a" x="475.732422"/>
      <use xlink:href="#DejaVuSans-443" x="536.132812"/>
      <use xlink:href="#DejaVuSans-43c" x="595.3125"/>
      <use xlink:href="#DejaVuSans-435" x="670.751953"/>
      <use xlink:href="#DejaVuSans-43d" x="732.275391"/>
      <use xlink:href="#DejaVuSans-442" x="797.65625"/>
      <use xlink:href="#DejaVuSans-43e" x="855.908203"/>
      <use xlink:href="#DejaVuSans-432" x="917.089844"/>
     </g>
    </g>
   </g>
   <g id="patch_53">
    <path d="M 51.05 390.04 
L 51.05 26.16 
" style="fill: none; stroke: #000000; stroke-width: 0.8; stroke-linejoin: miter; stroke-linecap: square"/>
   </g>
   <g id="patch_54">
    <path d="M 709.2 390.04 
L 709.2 26.16 
" style="fill: none; stroke: #000000; stroke-width: 0.8; stroke-linejoin: miter; stroke-linecap: square"/>
   </g>
   <g id="patch_55">
    <path d="M 51.05 390.04 
L 709.2 390.04 
" style="fill: none; stroke: #000000; stroke-width: 0.8; stroke-linejoin: miter; stroke-linecap: square"/>
   </g>
   <g id="patch_56">
    <path d="M 51.05 26.16 
L 709.2 26.16 
" style="fill: none; stroke: #000000; stroke-width: 0.8; stroke-linejoin: miter; stroke-linecap: square"/>
   </g>
   <g id="text_18">
    <!-- Доля неалфавитных символов (шумность) -->
    <g transform="translate(245.378125 20.16) scale(0.12 -0.12)">
     <defs>
      <path id="DejaVuSans-414" d="M 1459 531 
L 3522 531 
L 3522 4134 
L 2006 4134 
L 2006 3472 
Q 2006 1913 1656 878 
Q 1584 666 1459 531 
z
M 538 531 
Q 956 728 1075 1103 
Q 1378 2066 1378 3784 
L 1378 4666 
L 4153 4666 
L 4153 531 
L 4684 531 
L 4684 -1003 
L 4153 -1003 
L 4153 0 
L 847 0 
L 847 -1003 
L 316 -1003 
L 316 531 
L 538 531 
z
" transform="scale(0.015625)"/>
      <path id="DejaVuSans-44f" d="M 1181 2491 
Q 1181 2231 1381 2084 
Q 1581 1938 1953 1938 
L 2728 1938 
L 2728 3041 
L 1953 3041 
Q 1581 3041 1381 2897 
Q 1181 2753 1181 2491 
z
M 363 0 
L 1431 1534 
Q 1069 1616 828 1830 
Q 588 2044 588 2491 
Q 588 2997 923 3248 
Q 1259 3500 1938 3500 
L 3306 3500 
L 3306 0 
L 2728 0 
L 2728 1478 
L 2013 1478 
L 981 0 
L 363 0 
z
" transform="scale(0.015625)"/>
      <path id="DejaVuSans-430" d="M 2194 1759 
Q 1497 1759 1228 1600 
Q 959 1441 959 1056 
Q 959 750 1161 570 
Q 1363 391 1709 391 
Q 2188 391 2477 730 
Q 2766 1069 2766 1631 
L 2766 1759 
L 2194 1759 
z
M 3341 1997 
L 3341 0 
L 2766 0 
L 2766 531 
Q 2569 213 2275 61 
Q 1981 -91 1556 -91 
Q 1019 -91 701 211 
Q 384 513 384 1019 
Q 384 1609 779 1909 
Q 1175 2209 1959 2209 
L 2766 2209 
L 2766 2266 
Q 2766 2663 2505 2880 
Q 2244 3097 1772 3097 
Q 1472 3097 1187 3025 
Q 903 2953 641 2809 
L 641 3341 
Q 956 3463 1253 3523 
Q 1550 3584 1831 3584 
Q 2591 3584 2966 3190 
Q 3341 2797 3341 1997 
z
" transform="scale(0.015625)"/>
      <path id="DejaVuSans-444" d="M 947 1747 
Q 947 1013 1173 702 
Q 1400 391 1784 391 
Q 2091 391 2447 916 
L 2447 2578 
Q 2091 3103 1784 3103 
Q 1400 3103 1173 2792 
Q 947 2481 947 1747 
z
M 2447 -1331 
L 2447 447 
Q 2269 153 2064 31 
Q 1859 -91 1600 -91 
Q 1078 -91 714 392 
Q 350 875 350 1734 
Q 350 2594 714 3089 
Q 1078 3584 1600 3584 
Q 1859 3584 2064 3465 
Q 2269 3347 2447 3053 
L 2447 4666 
L 3025 4666 
L 3025 3053 
Q 3203 3347 3408 3465 
Q 3613 3584 3872 3584 
Q 4394 3584 4758 3089 
Q 5122 2594 5122 1734 
Q 5122 875 4758 392 
Q 4394 -91 3872 -91 
Q 3613 -91 3408 31 
Q 3203 153 3025 447 
L 3025 -1331 
L 2447 -1331 
z
M 4525 1747 
Q 4525 2481 4298 2792 
Q 4072 3103 3688 3103 
Q 3381 3103 3025 2578 
L 3025 916 
Q 3381 391 3688 391 
Q 4072 391 4298 702 
Q 4525 1013 4525 1747 
z
" transform="scale(0.015625)"/>
      <path id="DejaVuSans-44b" d="M 3907 3500 
L 4482 3500 
L 4482 0 
L 3907 0 
L 3907 3500 
z
M 4195 3584 
L 4195 3584 
z
M 2781 1038 
Q 2781 1319 2576 1466 
Q 2372 1613 1978 1613 
L 1159 1613 
L 1159 459 
L 1978 459 
Q 2372 459 2576 607 
Q 2781 756 2781 1038 
z
M 581 3500 
L 1159 3500 
L 1159 2072 
L 2003 2072 
Q 2672 2072 3033 1817 
Q 3394 1563 3394 1038 
Q 3394 513 3033 256 
Q 2672 0 2003 0 
L 581 0 
L 581 3500 
z
" transform="scale(0.015625)"/>
      <path id="DejaVuSans-445" d="M 3513 3500 
L 2247 1797 
L 3578 0 
L 2900 0 
L 1881 1375 
L 863 0 
L 184 0 
L 1544 1831 
L 300 3500 
L 978 3500 
L 1906 2253 
L 2834 3500 
L 3513 3500 
z
" transform="scale(0.015625)"/>
      <path id="DejaVuSans-28" d="M 1984 4856 
Q 1566 4138 1362 3434 
Q 1159 2731 1159 2009 
Q 1159 1288 1364 580 
Q 1569 -128 1984 -844 
L 1484 -844 
Q 1016 -109 783 600 
Q 550 1309 550 2009 
Q 550 2706 781 3412 
Q 1013 4119 1484 4856 
L 1984 4856 
z
" transform="scale(0.015625)"/>
      <path id="DejaVuSans-448" d="M 3216 459 
L 4697 459 
L 4697 3500 
L 5275 3500 
L 5275 0 
L 581 0 
L 581 3500 
L 1159 3500 
L 1159 459 
L 2638 459 
L 2638 3500 
L 3216 3500 
L 3216 459 
z
" transform="scale(0.015625)"/>
      <path id="DejaVuSans-29" d="M 513 4856 
L 1013 4856 
Q 1481 4119 1714 3412 
Q 1947 2706 1947 2009 
Q 1947 1309 1714 600 
Q 1481 -109 1013 -844 
L 513 -844 
Q 928 -128 1133 580 
Q 1338 1288 1338 2009 
Q 1338 2731 1133 3434 
Q 928 4138 513 4856 
z
" transform="scale(0.015625)"/>
     </defs>
     <use xlink:href="#DejaVuSans-414"/>
     <use xlink:href="#DejaVuSans-43e" x="78.125"/>
     <use xlink:href="#DejaVuSans-43b" x="139.306641"/>
     <use xlink:href="#DejaVuSans-44f" x="203.222656"/>
     <use xlink:href="#DejaVuSans-20" x="263.378906"/>
     <use xlink:href="#DejaVuSans-43d" x="295.166016"/>
     <use xlink:href="#DejaVuSans-435" x="360.546875"/>
     <use xlink:href="#DejaVuSans-430" x="422.070312"/>
     <use xlink:href="#DejaVuSans-43b" x="483.349609"/>
     <use xlink:href="#DejaVuSans-444" x="547.265625"/>
     <use xlink:href="#DejaVuSans-430" x="632.763672"/>
     <use xlink:href="#DejaVuSans-432" x="694.042969"/>
     <use xlink:href="#DejaVuSans-438" x="752.978516"/>
     <use xlink:href="#DejaVuSans-442" x="817.96875"/>
     <use xlink:href="#DejaVuSans-43d" x="876.220703"/>
     <use xlink:href="#DejaVuSans-44b" x="941.601562"/>
     <use xlink:href="#DejaVuSans-445" x="1020.556641"/>
     <use xlink:href="#DejaVuSans-20" x="1079.736328"/>
     <use xlink:href="#DejaVuSans-441" x="1111.523438"/>
     <use xlink:href="#DejaVuSans-438" x="1166.503906"/>
     <use xlink:href="#DejaVuSans-43c" x="1231.494141"/>
     <use xlink:href="#DejaVuSans-432" x="1306.933594"/>
     <use xlink:href="#DejaVuSans-43e" x="1365.869141"/>
     <use xlink:href="#DejaVuSans-43b" x="1427.050781"/>
     <use xlink:href="#DejaVuSans-43e" x="1490.966797"/>
     <use xlink:href="#DejaVuSans-432" x="1552.148438"/>
     <use xlink:href="#DejaVuSans-20" x="1611.083984"/>
     <use xlink:href="#DejaVuSans-28" x="1642.871094"/>
     <use xlink:href="#DejaVuSans-448" x="1681.884766"/>
     <use xlink:href="#DejaVuSans-443" x="1773.388672"/>
     <use xlink:href="#DejaVuSans-43c" x="1832.568359"/>
     <use xlink:href="#DejaVuSans-43d" x="1908.007812"/>
     <use xlink:href="#DejaVuSans-43e" x="1973.388672"/>
     <use xlink:href="#DejaVuSans-441" x="2034.570312"/>
     <use xlink:href="#DejaVuSans-442" x="2089.550781"/>
     <use xlink:href="#DejaVuSans-44c" x="2147.802734"/>
     <use xlink:href="#DejaVuSans-29" x="2206.738281"/>
    </g>
   </g>
  </g>
 </g>
 <defs>
  <clipPath id="pfe2baec6bb">
   <rect x="51.05" y="26.16" width="658.15" height="363.88"/>
  </clipPath>
 </defs>
</svg>
