<?xml version="1.0" encoding="UTF-8" standalone="no"?>
<svg width="800" height="600" xmlns="http://www.w3.org/2000/svg">
  <!-- Фон -->
  <rect width="800" height="600" fill="#f8f9fa" />
  
  <!-- Заголовок -->
  <text x="400" y="40" font-family="Arial" font-size="24" font-weight="bold" text-anchor="middle" fill="#333">Процесс генерации ответа</text>
  
  <!-- Пользовательский запрос -->
  <rect x="50" y="80" width="700" height="50" rx="10" ry="10" fill="#e9ecef" stroke="#495057" stroke-width="2" />
  <text x="400" y="110" font-family="Arial" font-size="16" font-weight="bold" text-anchor="middle" fill="#495057">Пользовательский запрос: "Какие преимущества у RAG?"</text>
  
  <!-- Схема процесса --> 
  <!-- 1. Обработка запроса (Бэкенд) -->
  <rect x="50" y="160" width="200" height="80" rx="5" ry="5" fill="#4dabf7" stroke="#1864ab" stroke-width="2" />
  <text x="150" y="185" font-family="Arial" font-size="16" font-weight="bold" text-anchor="middle" fill="#fff">1. Обработка запроса</text>
  <text x="150" y="210" font-family="Arial" font-size="12" text-anchor="middle" fill="#fff">Препроцессинг и очистка</text>
  
  <!-- 2. Векторизация запроса -->
  <rect x="50" y="260" width="200" height="80" rx="5" ry="5" fill="#4dabf7" stroke="#1864ab" stroke-width="2" />
  <text x="150" y="285" font-family="Arial" font-size="16" font-weight="bold" text-anchor="middle" fill="#fff">2. Векторизация</text>
  <text x="150" y="310" font-family="Arial" font-size="12" text-anchor="middle" fill="#fff">Преобразование в эмбеддинг</text>
  
  <!-- 3. Поиск релевантных фрагментов -->
  <rect x="300" y="160" width="200" height="180" rx="5" ry="5" fill="#82c91e" stroke="#2b8a3e" stroke-width="2" />
  <text x="400" y="185" font-family="Arial" font-size="16" font-weight="bold" text-anchor="middle" fill="#fff">3. Retrieval</text>
  <line x1="320" y1="200" x2="480" y2="200" stroke="#fff" stroke-width="1" />
  
  <!-- Три режима поиска -->
  <rect x="320" y="210" width="160" height="30" rx="5" ry="5" fill="#2b8a3e" stroke="#2b8a3e" stroke-width="1" />
  <text x="400" y="230" font-family="Arial" font-size="12" text-anchor="middle" fill="#fff">Dense Retrieval</text>
  
  <rect x="320" y="250" width="160" height="30" rx="5" ry="5" fill="#2b8a3e" stroke="#2b8a3e" stroke-width="1" />
  <text x="400" y="270" font-family="Arial" font-size="12" text-anchor="middle" fill="#fff">Sparse Retrieval (BM25)</text>
  
  <rect x="320" y="290" width="160" height="30" rx="5" ry="5" fill="#2b8a3e" stroke="#2b8a3e" stroke-width="1" />
  <text x="400" y="310" font-family="Arial" font-size="12" text-anchor="middle" fill="#fff">Переранжирование</text>
  
  <!-- 4. Формирование промпта -->
  <rect x="550" y="160" width="200" height="180" rx="5" ry="5" fill="#f06595" stroke="#a61e4d" stroke-width="2" />
  <text x="650" y="185" font-family="Arial" font-size="16" font-weight="bold" text-anchor="middle" fill="#fff">4. Augmentation</text>
  <line x1="570" y1="200" x2="730" y2="200" stroke="#fff" stroke-width="1" />
  
  <!-- Релевантные чанки -->
  <rect x="570" y="210" width="160" height="100" rx="5" ry="5" fill="#a61e4d" stroke="#a61e4d" stroke-width="1" />
  <text x="650" y="230" font-family="Arial" font-size="12" text-anchor="middle" fill="#fff">Релевантные фрагменты</text>
  <text x="650" y="250" font-family="Arial" font-size="10" text-anchor="middle" fill="#fff">RAG улучшает ответы...</text>
  <text x="650" y="270" font-family="Arial" font-size="10" text-anchor="middle" fill="#fff">Основные преимущества...</text>
  <text x="650" y="290" font-family="Arial" font-size="10" text-anchor="middle" fill="#fff">Снижение галлюцинаций...</text>
  
  <!-- Структура промпта -->
  <rect x="570" y="320" width="160" height="15" rx="2" ry="2" fill="#a61e4d" stroke="#a61e4d" stroke-width="1" />
  <text x="650" y="331" font-family="Arial" font-size="8" text-anchor="middle" fill="#fff">Структурированный промпт</text>
  
  <!-- 5. Генерация ответа с Ollama -->
  <rect x="300" y="380" width="450" height="80" rx="5" ry="5" fill="#9775fa" stroke="#5f3dc4" stroke-width="2" />
  <text x="525" y="410" font-family="Arial" font-size="16" font-weight="bold" text-anchor="middle" fill="#fff">5. Generation</text>
  <text x="525" y="435" font-family="Arial" font-size="12" text-anchor="middle" fill="#fff">Генерация ответа с использованием LLM (mistral:7b-instruct)</text>
  
  <!-- 6. Результат запроса -->
  <rect x="50" y="490" width="700" height="80" rx="10" ry="10" fill="#e9ecef" stroke="#495057" stroke-width="2" />
  <text x="400" y="515" font-family="Arial" font-size="16" font-weight="bold" text-anchor="middle" fill="#495057">6. Ответ с источниками</text>
  <text x="400" y="540" font-family="Arial" font-size="12" text-anchor="middle" fill="#495057">RAG имеет преимущества: основан на фактах, меньше галлюцинаций, актуальность...</text>
  <text x="400" y="560" font-family="Arial" font-size="10" text-anchor="middle" fill="#6741d9">Источники: документ_1.pdf, документ_3.txt ...</text>
  
  <!-- Стрелки -->
  <!-- от запроса к обработке -->
  <line x1="150" y1="130" x2="150" y2="160" stroke="#adb5bd" stroke-width="2" stroke-dasharray="5,5" />
  
  <!-- от обработки к векторизации -->
  <line x1="150" y1="240" x2="150" y2="260" stroke="#adb5bd" stroke-width="2" />
  
  <!-- от векторизации к поиску -->
  <line x1="250" y1="300" x2="300" y2="300" stroke="#adb5bd" stroke-width="2" />
  <text x="275" y="290" font-family="Arial" font-size="10" text-anchor="middle" fill="#495057">Запрос-вектор</text>
  
  <!-- от поиска к формированию промпта -->
  <line x1="500" y1="250" x2="550" y2="250" stroke="#adb5bd" stroke-width="2" />
  <text x="525" y="240" font-family="Arial" font-size="10" text-anchor="middle" fill="#495057">Топ-K чанков</text>
  
  <!-- от формирования промпта к генерации -->
  <line x1="650" y1="340" x2="650" y2="380" stroke="#adb5bd" stroke-width="2" />
  <text x="670" y="360" font-family="Arial" font-size="10" text-anchor="middle" fill="#495057">Промпт с контекстом</text>
  
  <!-- от обработки запроса к генерации (прямое влияние) -->
  <path d="M50 200 L30 200 L30 420 L300 420" stroke="#adb5bd" stroke-width="2" stroke-dasharray="5,5" fill="none" />
  <text x="150" y="380" font-family="Arial" font-size="10" text-anchor="middle" fill="#495057">Исходный запрос</text>
  
  <!-- от генерации к результату -->
  <line x1="525" y1="460" x2="525" y2="490" stroke="#adb5bd" stroke-width="2" />
  
  <!-- Qdrant -->
  <rect x="320" y="70" width="160" height="30" rx="15" ry="15" fill="#82c91e" stroke="#2b8a3e" stroke-width="1" />
  <text x="400" y="90" font-family="Arial" font-size="12" text-anchor="middle" fill="#fff">Qdrant Vector Store</text>
  
  <!-- Стрелка к Qdrant -->
  <line x1="400" y1="100" x2="400" y2="160" stroke="#2b8a3e" stroke-width="2" stroke-dasharray="3,3" />
</svg> 